<svg width="13" height="11" viewBox="0 0 13 11" fill="none" xmlns="http://www.w3.org/2000/svg">
<path d="M8.70407 10.5684C8.66727 10.5684 8.62587 10.5638 8.58907 10.55C7.49427 10.1544 6.53287 9.71283 5.69567 9.23903C4.59627 9.72663 3.60727 9.98883 2.84367 10.1314C1.33027 10.4074 0.34127 10.2924 0.29987 10.2878C0.11127 10.2648 -0.0221305 10.09 0.00086952 9.90143C0.0238695 9.71283 0.19867 9.57943 0.38727 9.60243C0.39647 9.60243 1.33487 9.71283 2.75167 9.45063C3.36347 9.33563 4.12247 9.13783 4.96887 8.80203C1.93287 6.84243 0.81507 4.46883 0.86107 2.73463C0.89787 1.44203 1.56947 0.439227 2.61827 0.126427C3.34967 -0.0943732 4.02587 -0.0253728 4.63307 0.328827C5.47947 0.821027 5.99467 1.77783 6.27527 2.48163C6.43167 2.19183 6.64327 1.85603 6.91007 1.53403C7.85767 0.384027 9.03987 -0.0529727 10.3371 0.273627C11.2249 0.499027 11.8045 1.06943 11.9701 1.88823C12.1265 2.66563 11.9011 3.59483 11.3215 4.58383C10.7189 5.60503 9.74827 6.63543 8.52007 7.56923C7.87339 8.06284 7.18546 8.49992 6.46387 8.87563C7.18607 9.25743 7.97727 9.60243 8.82367 9.90603C9.00307 9.97043 9.09507 10.1682 9.03067 10.3476C8.98007 10.481 8.84667 10.5684 8.70407 10.5684ZM3.43247 0.683027C3.23467 0.683027 3.03227 0.715227 2.81607 0.779627C2.04787 1.00963 1.57407 1.74563 1.54647 2.74843C1.51427 3.89383 2.06627 5.16343 3.09667 6.33183C3.78207 7.10923 4.67447 7.82683 5.73707 8.46163C6.48687 8.10283 7.29187 7.63363 8.10147 7.01263C9.26067 6.12943 10.1669 5.16803 10.7235 4.22503C11.2111 3.40163 11.4135 2.61963 11.2939 2.02163C11.1789 1.46503 10.8017 1.10163 10.1669 0.940627C9.14107 0.678427 8.23027 1.02343 7.45287 1.95723C6.84107 2.69323 6.54667 3.53503 6.54667 3.54423C6.49607 3.69143 6.35347 3.78343 6.20167 3.77883C6.04527 3.76963 5.91647 3.65923 5.88427 3.51203C5.87967 3.49363 5.43807 1.60303 4.28347 0.926827C4.01667 0.761227 3.73147 0.683027 3.43247 0.683027Z" fill="white"/>
</svg>
