<svg width="28" height="28" viewBox="0 0 28 28" xmlns="http://www.w3.org/2000/svg">
  <path d="M9.79167 23.7697C9.3961 23.7697 9.00942 23.8901 8.68053 24.1157C8.35163 24.3412 8.09528 24.6618 7.94391 25.0369C7.79253 25.4119 7.75293 25.8246 7.8301 26.2228C7.90727 26.621 8.09775 26.9867 8.37745 27.2738C8.65716 27.5609 9.01352 27.7564 9.40149 27.8356C9.78945 27.9148 10.1916 27.8741 10.557 27.7188C10.9225 27.5634 11.2348 27.3003 11.4546 26.9627C11.6744 26.6252 11.7917 26.2283 11.7917 25.8224C11.7917 25.278 11.581 24.7559 11.2059 24.3709C10.8308 23.986 10.3221 23.7697 9.79167 23.7697ZM23.7917 19.6645H7.79167C7.43805 19.6645 7.09891 19.5203 6.84886 19.2637C6.59881 19.007 6.45833 18.659 6.45833 18.2961C6.45833 17.9331 6.59881 17.5851 6.84886 17.3284C7.09891 17.0718 7.43805 16.9276 7.79167 16.9276H19.1133C19.9818 16.9248 20.8261 16.6331 21.5196 16.0963C22.213 15.5595 22.7183 14.8066 22.9597 13.9502L25.0736 6.35644C25.1303 6.15278 25.1402 5.93839 25.1024 5.73015C25.0647 5.52191 24.9804 5.3255 24.8561 5.15638C24.7318 4.98726 24.571 4.85006 24.3863 4.75557C24.2016 4.66108 23.9981 4.61188 23.7917 4.61184H7.44376C7.16774 3.81454 6.65892 3.12397 5.98663 2.63422C5.31434 2.14447 4.51128 1.87935 3.68685 1.875H2.45833C2.10471 1.875 1.76557 2.01917 1.51552 2.2758C1.26548 2.53243 1.125 2.88049 1.125 3.24342C1.125 3.60635 1.26548 3.95441 1.51552 4.21104C1.76557 4.46767 2.10471 4.61184 2.45833 4.61184H3.68685C3.9763 4.61288 4.25763 4.71012 4.48871 4.88899C4.7198 5.06786 4.88822 5.31875 4.96875 5.60408L5.17611 6.34952L5.17643 6.35644L7.36393 14.2142C6.34602 14.3266 5.40883 14.8352 4.74535 15.6355C4.08188 16.4357 3.74262 17.4666 3.79744 18.5158C3.85225 19.565 4.29697 20.5527 5.04002 21.2756C5.78306 21.9984 6.76788 22.4013 7.79167 22.4013H23.7917C24.1453 22.4013 24.4844 22.2571 24.7345 22.0005C24.9845 21.7439 25.125 21.3958 25.125 21.0329C25.125 20.67 24.9845 20.3219 24.7345 20.0653C24.4844 19.8086 24.1453 19.6645 23.7917 19.6645ZM22.0241 7.34868L20.3958 13.1979C20.3154 13.4834 20.1469 13.7346 19.9157 13.9136C19.6845 14.0926 19.4029 14.1899 19.1133 14.1908H10.1309L9.79093 12.9699L8.22689 7.34868H22.0241ZM20.4583 23.7697C20.0628 23.7697 19.6761 23.8901 19.3472 24.1157C19.0183 24.3412 18.7619 24.6618 18.6106 25.0369C18.4592 25.4119 18.4196 25.8246 18.4968 26.2228C18.5739 26.621 18.7644 26.9867 19.0441 27.2738C19.3238 27.5609 19.6802 27.7564 20.0682 27.8356C20.4561 27.9148 20.8582 27.8741 21.2237 27.7188C21.5892 27.5634 21.9015 27.3003 22.1213 26.9627C22.341 26.6252 22.4583 26.2283 22.4583 25.8224C22.4583 25.278 22.2476 24.7559 21.8725 24.3709C21.4975 23.986 20.9888 23.7697 20.4583 23.7697Z" fill="#ffffff"/>
</svg>




