<svg width="28" height="28" viewBox="0 0 28 28" fill="none" xmlns="http://www.w3.org/2000/svg">
<path d="M7.67484 4.3125C8.70953 4.3125 9.73711 4.57336 10.6466 5.06719C11.5566 5.56102 12.3353 6.28125 12.8991 7.14969L13.9934 8.8357L15.097 7.1557C16.2663 5.37562 18.2355 4.31305 20.3656 4.3125H20.3798C22.0609 4.32125 23.6414 4.98078 24.8303 6.16969C26.0192 7.35859 26.6787 8.93852 26.6875 10.6196C26.6853 13.3496 24.442 16.6325 20.1983 20.1134C17.692 22.1691 15.1517 23.7353 14.0044 24.4085C12.857 23.7271 10.3141 22.1417 7.805 20.074C5.86469 18.4749 4.32742 16.907 3.23586 15.4146C1.95945 13.6706 1.3125 12.0557 1.3125 10.6163C1.3125 8.9325 1.9682 7.34984 3.15875 6.1593C4.3493 4.9682 5.9325 4.3125 7.61578 4.3125H7.6207H7.62563C7.64258 4.3125 7.65898 4.3125 7.67484 4.3125ZM7.67484 3C7.65516 3 7.63547 3 7.61578 3C3.40977 3 0 6.41031 0 10.6163C0 18.1949 14 25.9228 14 25.9228C14 25.9228 28 18.307 28 10.6163C27.9798 6.41852 24.5815 3.02078 20.3842 3C20.3782 3 20.3722 3 20.3656 3C17.8013 3 15.4082 4.29063 14 6.43492C12.6088 4.29172 10.2277 3 7.67484 3Z" fill="#D7433E"/>
</svg>
