<svg width="28" height="28" viewBox="0 0 28 28" xmlns="http://www.w3.org/2000/svg">
<path d="M14 16.3247C20.1191 16.3247 25.1971 20.4694 25.1973 25.6665C25.1973 26.3105 24.6655 26.8423 24.0215 26.8423C23.3776 26.8421 22.8467 26.3104 22.8467 25.6665C22.8465 21.8674 18.9414 18.6753 14 18.6753C9.05871 18.6754 5.15354 21.8674 5.15332 25.6665C5.15332 26.3105 4.62253 26.8423 3.97852 26.8423C3.3345 26.8423 2.80371 26.3105 2.80371 25.6665C2.80392 20.4695 7.88094 16.3248 14 16.3247ZM14 1.15869C17.8639 1.15869 21.0086 4.30263 21.0088 8.1665C21.0088 12.0305 17.864 15.1753 14 15.1753C10.1361 15.1752 6.99219 12.0305 6.99219 8.1665C6.99236 4.3027 10.1362 1.15879 14 1.15869ZM14 3.5083C11.4359 3.5084 9.34197 5.6024 9.3418 8.1665C9.3418 10.7308 11.4358 12.8246 14 12.8247C16.5643 12.8247 18.6582 10.7308 18.6582 8.1665C18.658 5.60234 16.5642 3.5083 14 3.5083Z" fill="#ffffff"/>
</svg>
