<svg width="28" height="28" viewBox="0 0 28 28" fill="none" xmlns="http://www.w3.org/2000/svg">
<path d="M12.2051 1C18.1277 1.00026 22.9293 5.80132 22.9297 11.7236L22.9199 12.1787C22.8325 14.3066 22.1102 16.3603 20.8467 18.0752L27.0078 24.2363C27.2339 24.4627 27.3877 24.7516 27.4502 25.0654C27.5125 25.3794 27.4809 25.7062 27.3584 26.002C27.2358 26.2976 27.0279 26.5507 26.7617 26.7285C26.5287 26.8841 26.2596 26.9765 25.9814 26.9971L25.8623 27.001C25.6496 27.0012 25.4387 26.9593 25.2422 26.8779C25.0948 26.8169 24.9568 26.7347 24.834 26.6338L24.7168 26.5264L18.5557 20.3652C16.7778 21.674 14.5814 22.4491 12.2051 22.4492C6.28247 22.4492 1.48082 17.6471 1.48047 11.7246C1.48047 5.80178 6.28225 1 12.2051 1ZM25.75 26.5146L25.8623 26.5195C25.8156 26.5196 25.7688 26.5154 25.7227 26.5098C25.7317 26.5109 25.7409 26.5138 25.75 26.5146ZM26.4941 26.3271C26.4045 26.3871 26.3068 26.4326 26.2051 26.4648C26.2538 26.4495 26.3023 26.433 26.3486 26.4111C26.3989 26.3874 26.4475 26.3593 26.4941 26.3281C26.5365 26.2998 26.5753 26.2669 26.6133 26.2334C26.5754 26.2668 26.5364 26.2989 26.4941 26.3271ZM18.5986 19.7275L25.0576 26.1865C25.1103 26.2393 25.1678 26.2869 25.2295 26.3281C25.2914 26.3695 25.3577 26.405 25.4268 26.4336L25.4258 26.4326C25.2879 26.3754 25.163 26.2912 25.0576 26.1855L18.5986 19.7266V19.7275ZM26.9131 25.8164C26.8719 25.9157 26.8164 26.0077 26.75 26.0908C26.7816 26.0512 26.8118 26.0103 26.8379 25.9668L26.9131 25.8174V25.8164ZM26.9873 25.2354C26.9974 25.317 27.0013 25.3989 26.9941 25.4805C26.9987 25.4292 27.0015 25.3777 26.999 25.3262C26.9975 25.2957 26.9913 25.2657 26.9873 25.2354ZM11.6777 21.9541C11.8522 21.9629 12.0284 21.9678 12.2051 21.9678C12.3784 21.9678 12.5505 21.9607 12.7217 21.9521C12.5505 21.9607 12.3783 21.9668 12.2051 21.9668C11.8585 21.9668 11.5155 21.9487 11.1777 21.915C11.3432 21.9315 11.51 21.9456 11.6777 21.9541ZM12.7891 21.9492C12.8609 21.9452 12.9325 21.9401 13.0039 21.9346C12.9325 21.9401 12.8609 21.9452 12.7891 21.9492ZM13.333 21.9043C13.4031 21.8966 13.4733 21.89 13.543 21.8809C13.8239 21.8442 14.1008 21.7944 14.374 21.7354C14.033 21.8089 13.6857 21.8656 13.333 21.9043ZM12.2051 4.23926C8.07105 4.23926 4.71973 7.59058 4.71973 11.7246C4.72008 15.8583 8.07127 19.21 12.2051 19.21C16.3389 19.2097 19.6901 15.8582 19.6904 11.7246C19.6904 7.59073 16.3392 4.23952 12.2051 4.23926ZM13.0791 21.9287C13.1601 21.9218 13.2409 21.915 13.3213 21.9062C13.2409 21.915 13.1601 21.9219 13.0791 21.9287Z" fill="#ffffff"/>
</svg>
